<svg id="Layer_1" data-name="Layer 1" xmlns="http://www.w3.org/2000/svg" xmlns:xlink="http://www.w3.org/1999/xlink" viewBox="0 0 350 350"><defs><style>.cls-1{fill:url(#linear-gradient);}.cls-2{fill:url(#linear-gradient-2);}.cls-3{fill:#010101;}.cls-4{fill:url(#linear-gradient-3);}</style><linearGradient id="linear-gradient" x1="154.51" y1="326.74" x2="120.43" y2="652.44" gradientUnits="userSpaceOnUse"><stop offset="0.02" stop-color="#ed1c24"/><stop offset="1" stop-color="#be1e2d"/></linearGradient><linearGradient id="linear-gradient-2" x1="126.31" y1="270.81" x2="126.31" y2="306.08" xlink:href="#linear-gradient"/><linearGradient id="linear-gradient-3" x1="69.3" y1="264.52" x2="69.3" y2="310.79" xlink:href="#linear-gradient"/></defs><title>Payfast Final Stacked Logo</title><path class="cls-1" d="M249.23,181.2a140.69,140.69,0,0,1-26.12,12.22,122.91,122.91,0,0,1-30.87,7.73c-4.49.75-9.08,1.37-13.75,1.85l-.07,0-.08,0C135.08,206.68,98.13,197.38,77,177.5c-.19-.14-.34-.37-.52-.52,0,.78-.1,1.57-.14,2.37-.1,9,3.68,17.42,9.29,24,17.15,19.68,50.15,30.41,88.48,31,25.55.17,48.84-4.63,66.7-13.22,8.89-4.36,16.51-9.64,22.32-16.26s9.63-14.85,9.69-23.91a34.74,34.74,0,0,0-3.88-16A89,89,0,0,1,249.23,181.2ZM173.81,154c-40.45,3.09-75.28-4.46-96.93-21.71a37.66,37.66,0,0,0,9.19,21.79c17.14,19.71,50.15,30.39,88.48,31,25.55.17,48.84-4.64,66.66-13.25,8.89-4.32,16.57-9.61,22.33-16.25s9.63-14.83,9.67-23.89a35.16,35.16,0,0,0-5.84-19.39C261.69,119.69,237.86,149.1,173.81,154ZM175,135.78c25.56.16,48.86-4.65,66.66-13.24,8.9-4.35,16.56-9.64,22.35-16.28s9.64-14.83,9.67-23.86S270,65,264.4,58.37c-17.17-19.71-50.14-30.39-88.5-31C150.33,27.18,127,32,109.24,40.55c-8.93,4.38-16.56,9.66-22.35,16.28s-9.62,14.83-9.71,23.89,3.7,17.4,9.32,24.05C103.61,124.46,136.66,135.15,175,135.78ZM100.32,61.36c9.3-11.35,38.27-22.45,72.13-21.87,22.64.14,43,5,56.66,12,6.91,3.44,12,7.39,15.12,11.11s4.12,6.81,4.12,9.65-1.12,5.89-4.27,9.6c-9.29,11.37-38.26,22.46-72.16,21.89-22.62-.16-42.93-5-56.63-12-6.88-3.47-12-7.45-15.13-11.12S96,73.81,96,70.93,97.16,65,100.32,61.36Z"/><path class="cls-2" d="M122.45,270.18c-2-2.33-4.88-3.49-8.59-3.49H97l-1.26,6.39H112.6a5,5,0,0,1,4.16,1.85,5.37,5.37,0,0,1,1,4.54l-.25,1.1-.09.75H101.75a15.69,15.69,0,0,0-10.06,3.62,15.22,15.22,0,0,0-5.59,9.17l-.17.68q-1.18,5.54,1.81,9.17t8.54,3.61h22.13l6-28.43Q125.47,273.67,122.45,270.18Zm-9.18,31H97.62a5.27,5.27,0,0,1-4.25-1.85,5,5,0,0,1-1-4.54l.17-.68a7.45,7.45,0,0,1,2.82-4.54,7.85,7.85,0,0,1,5-1.85H116Zm47.18-34.5L153.3,301.1H137.15a5.26,5.26,0,0,1-4.25-1.85,5,5,0,0,1-1-4.54l5.8-28h-6.48l-5.8,28c-.79,3.7-.16,6.75,1.85,9.17s4.88,3.62,8.58,3.62h16.24l-.51,2.35a8,8,0,0,1-2.9,4.51,7.68,7.68,0,0,1-4.93,1.9H121.67l-1.34,6.39h22.13a15.34,15.34,0,0,0,9.93-3.7,15.85,15.85,0,0,0,5.72-9.09L167,266.69Z"/><path class="cls-3" d="M228.43,307.57H206.3q-5.55,0-8.54-3.61t-1.8-9.17l.16-.68a15.21,15.21,0,0,1,5.6-9.17,15.66,15.66,0,0,1,10.05-3.62h15.65l.08-.75.25-1.1a5.37,5.37,0,0,0-1-4.54,5,5,0,0,0-4.16-1.85H204.41l1.26-6.39h18.21q5.55,0,8.58,3.49c2,2.33,2.66,5.32,1.93,9Zm-5.13-6.39L226,287.72H210.42a7.84,7.84,0,0,0-5,1.85,7.46,7.46,0,0,0-2.82,4.54l-.17.68a5,5,0,0,0,1,4.54,5.29,5.29,0,0,0,4.25,1.85Z"/><path class="cls-3" d="M270.86,296.64a12.75,12.75,0,0,1-5.63,8.33,16.74,16.74,0,0,1-9.6,2.78H233.76l1.35-6.39H257q6.48,0,7.41-4.71l.34-1.51q1-4.71-5.47-4.71h-9.85c-3.65,0-6.45-.92-8.41-2.77q-3.36-3-2.27-8.33l.34-1.51a12.71,12.71,0,0,1,5.64-8.33,16.76,16.76,0,0,1,9.59-2.78h22L275,273.08H253q-6.48,0-7.49,4.72l-.33,1.51q-.93,4.71,5.56,4.71h9.84q5.47,0,8.41,2.78,3.28,3,2.18,8.33Z"/><path class="cls-3" d="M300.43,307.5H290.16q-5.55,0-8.59-3.62t-1.85-9.17l4.54-22h-4l1.43-6.56h4l3-14.64h6.56l-3,14.64H305.9l-1.43,6.56H290.84l-4.55,22a5,5,0,0,0,5.14,6.39H301.7Z"/><path class="cls-4" d="M93,270.41a15.17,15.17,0,0,1-5.6,9A15.34,15.34,0,0,1,77.61,283H55.55l-5.07,24.55H44.1l11.53-55.42H84.09a10,10,0,0,1,8.25,3.65,10.34,10.34,0,0,1,1.86,9Zm-6.39,0,1.16-5.64a4.94,4.94,0,0,0-5.06-6.3H60.69l-3.82,18.24H78.94a7.59,7.59,0,0,0,4.89-1.82A7.78,7.78,0,0,0,86.65,270.41Z"/><path class="cls-3" d="M217.19,258h-26.8a8.47,8.47,0,0,0-7.94,6.41L180,276.61h16.73l-1.35,6.5H178.69l-5.17,24.54H167L176,264.37a16.36,16.36,0,0,1,15.78-12.82h26.81Z"/></svg>